<?xml version="1.0" encoding="utf-8"?>
<!-- Generator: Adobe Illustrator 21.0.2, SVG Export Plug-In . SVG Version: 6.00 Build 0)  -->
<svg version="1.1" id="Layer_1" xmlns="http://www.w3.org/2000/svg" xmlns:xlink="http://www.w3.org/1999/xlink" x="0px" y="0px"
	 viewBox="0 0 600 600" enable-background="new 0 0 600 600" xml:space="preserve">
<path fill="#FFFFFF" d="M79.1,122.8c0-0.4-0.1-0.8-0.1-1.2c-0.1-1-0.5-2.6-1.6-3.7c-0.7-0.7-1.8-1.1-3-1.1c-0.4,0-0.6,0-0.7,0v-1.6
	c0.2,0,0.4,0,0.6,0c0.7-0.1,2-0.3,2.9-1.2c0.7-0.7,1.1-1.7,1.1-3c0-0.4,0-0.7,0-0.7h1.6c0,0.2,0,0.5,0,0.7c0.1,0.7,0.3,1.8,1.1,2.7
	c0.7,0.7,1.8,1,3.1,1c0.4,0,0.7,0,0.7,0v1.6c-0.2,0-0.4,0-0.6,0c-0.6,0.1-1.6,0.3-2.5,1.2c-0.9,0.9-1.3,2.3-1.3,4.1
	c0.1,0.7,0.1,1.2,0.1,1.3L79.1,122.8z M77.4,115.9c0.4,0.2,0.8,0.5,1.1,0.9c0.4,0.4,0.7,0.8,1,1.3c0.3-0.7,0.7-1.3,1.2-1.8
	c0.2-0.2,0.4-0.4,0.6-0.6c-0.5-0.2-1-0.6-1.4-1c-0.3-0.3-0.5-0.5-0.7-0.8c-0.2,0.5-0.5,0.9-0.9,1.2
	C78.1,115.5,77.8,115.7,77.4,115.9z"/>
<path fill="#FFFFFF" d="M195.9,218.1c0-1.4-0.4-2.8-1.1-4.1c1.9,0.9,4.2,0.7,6-0.4c1.1,2.4,2.1,4.9,3.2,7.3
	C200.3,220.9,195.9,218.1,195.9,218.1z"/>
<path fill="#FFFFFF" d="M89.3,347.1c-1.4,0.1-2.8,0.7-4,1.4c0.7-2,0.3-4.3-1-5.9c2.3-1.3,4.6-2.6,6.9-3.9
	C91.7,342.5,89.3,347.1,89.3,347.1z"/>
<path fill="#FFFFFF" d="M445.8,533.1c-1.4,0.1-2.8,0.7-4,1.4c0.7-2,0.3-4.3-1-5.9c2.3-1.3,4.6-2.6,6.9-3.9
	C448.2,528.5,445.8,533.1,445.8,533.1z"/>
<path fill="#FFFFFF" d="M545,70c0-1.4-0.4-2.8-1.1-4.1c1.9,0.9,4.2,0.7,6-0.4c1.1,2.4,2.1,4.9,3.2,7.3C549.4,72.8,545,70,545,70z"/>
<path fill="#FFFFFF" d="M336.2,386.6c0-0.4-0.1-0.8-0.1-1.2c-0.1-1-0.5-2.6-1.6-3.7c-0.7-0.7-1.8-1.1-3-1.1c-0.4,0-0.6,0-0.7,0V379
	c0.2,0,0.4,0,0.6,0c0.7-0.1,2-0.3,2.9-1.2c0.7-0.7,1.1-1.7,1.1-3c0-0.4,0-0.7,0-0.7h1.6c0,0.2,0,0.5,0,0.7c0.1,0.7,0.3,1.8,1.1,2.7
	c0.7,0.7,1.8,1,3.1,1c0.4,0,0.7,0,0.7,0v1.6c-0.2,0-0.4,0-0.6,0c-0.6,0.1-1.6,0.3-2.5,1.2c-0.9,0.9-1.3,2.3-1.3,4.1
	c0.1,0.7,0.1,1.2,0.1,1.3L336.2,386.6z M334.6,379.7c0.4,0.2,0.8,0.5,1.1,0.9c0.4,0.4,0.7,0.8,1,1.3c0.3-0.7,0.7-1.3,1.2-1.8
	c0.2-0.2,0.4-0.4,0.6-0.6c-0.5-0.2-1-0.6-1.4-1c-0.3-0.3-0.5-0.5-0.7-0.8c-0.2,0.5-0.5,0.9-0.9,1.2
	C335.2,379.3,334.9,379.5,334.6,379.7z"/>
<circle fill="#FFFFFF" cx="282.4" cy="67" r="2"/>
<circle fill="#FFFFFF" cx="423" cy="182" r="2"/>
<circle fill="#FFFFFF" cx="523.3" cy="148" r="2"/>
<circle fill="#FFFFFF" cx="173.9" cy="454.2" r="2"/>
<circle fill="#FFFFFF" cx="44.9" cy="522.1" r="2"/>
<circle fill="#FFFFFF" cx="506.1" cy="416" r="2"/>
</svg>
