<?xml version="1.0" encoding="utf-8"?>
<!-- Generator: Adobe Illustrator 21.0.2, SVG Export Plug-In . SVG Version: 6.00 Build 0)  -->
<svg version="1.1" id="Layer_1" xmlns="http://www.w3.org/2000/svg" xmlns:xlink="http://www.w3.org/1999/xlink" x="0px" y="0px"
	 viewBox="0 0 600 600" enable-background="new 0 0 600 600" xml:space="preserve">
<path d="M545,70c0-1.4-0.4-2.8-1.1-4.1c1.9,0.9,4.2,0.7,6-0.4c1.1,2.4,2.1,4.9,3.2,7.3C549.4,72.8,545,70,545,70z"/>
<path fill="#231F20" d="M317.7,373.1c0-0.4-0.1-0.8-0.1-1.2c-0.1-1-0.5-2.6-1.6-3.7c-0.7-0.7-1.8-1.1-3-1.1c-0.4,0-0.6,0-0.7,0v-1.6
	c0.2,0,0.4,0,0.6,0c0.7-0.1,2-0.3,2.9-1.2c0.7-0.7,1.1-1.7,1.1-3c0-0.4,0-0.7,0-0.7h1.6c0,0.2,0,0.5,0,0.7c0.1,0.7,0.3,1.8,1.1,2.7
	c0.7,0.7,1.8,1,3.1,1c0.4,0,0.7,0,0.7,0v1.6c-0.2,0-0.4,0-0.6,0c-0.6,0.1-1.6,0.3-2.5,1.2c-0.9,0.9-1.3,2.3-1.3,4.1
	c0.1,0.7,0.1,1.2,0.1,1.3L317.7,373.1z M316.1,366.2c0.4,0.2,0.8,0.5,1.1,0.9c0.4,0.4,0.7,0.8,1,1.3c0.3-0.7,0.7-1.3,1.2-1.8
	c0.2-0.2,0.4-0.4,0.6-0.6c-0.5-0.2-1-0.6-1.4-1c-0.3-0.3-0.5-0.5-0.7-0.8c-0.2,0.5-0.5,0.9-0.9,1.2
	C316.7,365.8,316.4,366,316.1,366.2z"/>
</svg>
